<mxfile host="app.diagrams.net" modified="2024-01-06T15:17:26.687Z" agent="Mozilla/5.0 (Windows NT 10.0; Win64; x64) AppleWebKit/537.36 (KHTML, like Gecko) Chrome/120.0.0.0 Safari/537.36" etag="CY9rwQfv2BOogaQrAqnG" version="22.1.17" type="device">
  <diagram name="Page-1" id="-3I-1HYIQGd_6t2toVu3">
    <mxGraphModel dx="1199" dy="747" grid="1" gridSize="10" guides="1" tooltips="1" connect="1" arrows="1" fold="1" page="1" pageScale="1" pageWidth="850" pageHeight="1100" math="0" shadow="0">
      <root>
        <mxCell id="0" />
        <mxCell id="1" parent="0" />
      </root>
    </mxGraphModel>
  </diagram>
</mxfile>
